<?xml version="1.0" encoding="UTF-8" standalone="no"?>
<!-- Generator: Adobe Illustrator 15.0.0, SVG Export Plug-In . SVG Version: 6.00 Build 0)  -->

<svg
   xmlns:dc="http://purl.org/dc/elements/1.1/"
   xmlns:cc="http://creativecommons.org/ns#"
   xmlns:rdf="http://www.w3.org/1999/02/22-rdf-syntax-ns#"
   xmlns:svg="http://www.w3.org/2000/svg"
   xmlns="http://www.w3.org/2000/svg"
   xmlns:sodipodi="http://sodipodi.sourceforge.net/DTD/sodipodi-0.dtd"
   xmlns:inkscape="http://www.inkscape.org/namespaces/inkscape"
   version="1.1"
   id="Layer_1"
   x="0px"
   y="0px"
   width="334.6937"
   height="63.585999"
   viewBox="0 0 334.6937 63.585999"
   enable-background="new 0 0 360 288"
   xml:space="preserve"
   inkscape:version="0.48.4 r9939"
   sodipodi:docname="hacknylogovector.svg"><metadata
     id="metadata3145"><rdf:RDF><cc:Work
         rdf:about=""><dc:format>image/svg+xml</dc:format><dc:type
           rdf:resource="http://purl.org/dc/dcmitype/StillImage" /></cc:Work></rdf:RDF></metadata><defs
     id="defs3143" /><sodipodi:namedview
     pagecolor="#ffffff"
     bordercolor="#666666"
     borderopacity="1"
     objecttolerance="10"
     gridtolerance="10"
     guidetolerance="10"
     inkscape:pageopacity="0"
     inkscape:pageshadow="2"
     inkscape:window-width="1855"
     inkscape:window-height="1056"
     id="namedview3141"
     showgrid="false"
     inkscape:snap-bbox="true"
     fit-margin-top="0"
     fit-margin-left="0"
     fit-margin-right="0"
     fit-margin-bottom="0"
     inkscape:zoom="3.15625"
     inkscape:cx="167.567"
     inkscape:cy="32.166"
     inkscape:window-x="65"
     inkscape:window-y="24"
     inkscape:window-maximized="1"
     inkscape:current-layer="Layer_1_1_" /><g
     id="Layer_1_1_"
     sodipodi:docname="HackNY Vector Logo (1).svg"
     inkscape:version="0.48.5 r10040"
     transform="translate(-12.433,-112.58)"><sodipodi:namedview
       borderopacity="1"
       inkscape:current-layer="Layer_1"
       id="namedview3045"
       inkscape:window-x="960"
       inkscape:window-height="1011"
       inkscape:zoom="0.54656468"
       bordercolor="#666666"
       inkscape:window-width="944"
       inkscape:pageshadow="2"
       inkscape:cx="413.58246"
       pagecolor="#ffffff"
       showgrid="false"
       guidetolerance="10"
       inkscape:cy="222.38391"
       inkscape:pageopacity="0"
       inkscape:window-maximized="0"
       objecttolerance="10"
       gridtolerance="10"
       inkscape:window-y="30" /><g
       id="g3019"><path
         id="path3021"
         d="m 23.904,136.771 c 6.767,0 13.248,0 19.871,0 0.048,-0.816 0.096,-1.584 0.096,-2.352 0.048,-4.08 -0.048,-8.159 0.144,-12.287 0.144,-3.264 2.352,-5.328 5.328,-5.424 2.928,-0.096 5.184,1.68 5.76,4.56 0.144,0.768 0.191,1.584 0.191,2.352 0,12.767 0,25.536 0,38.253 0,0.624 0,1.2 -0.096,1.824 -0.384,3.168 -2.591,5.137 -5.615,5.185 -3.024,0 -5.328,-1.969 -5.52,-5.232 -0.192,-4.032 -0.096,-8.063 -0.144,-12.096 0,-1.679 0,-3.407 0,-5.136 -6.767,0 -13.247,0 -19.966,0 0,3.84 0.048,7.632 0,11.376 0,2.062 0,4.176 -0.289,6.19 -0.432,3.12 -2.688,4.896 -5.711,4.801 -2.88,-0.096 -4.944,-1.968 -5.376,-5.04 -0.096,-0.863 -0.144,-1.728 -0.144,-2.544 0,-12.336 0,-24.67 0,-37.006 0,-1.104 0.048,-2.208 0.288,-3.263 0.672,-2.88 2.64,-4.416 5.52,-4.369 2.784,0.048 4.944,1.728 5.328,4.56 0.335,2.112 0.288,4.272 0.288,6.384 0.095,3.121 0.047,6.144 0.047,9.264 z"
         inkscape:connector-curvature="0"
         style="fill:#dd2428" /><path
         id="path3023"
         d="m 182.487,138.451 c 4.224,6.096 8.4,12.096 12.528,18.144 0.863,1.248 1.68,2.544 2.352,3.888 1.439,2.928 1.056,5.328 -0.961,6.959 -2.016,1.632 -5.711,1.632 -7.823,-0.191 -1.009,-0.864 -1.824,-1.968 -2.544,-3.072 -3.792,-5.903 -7.536,-11.855 -11.328,-17.854 -2.063,2.016 -4.127,3.888 -6.047,5.855 -0.288,0.288 -0.241,1.056 -0.241,1.583 -0.048,3.312 0.096,6.624 -0.144,9.888 -0.24,3.504 -2.928,5.568 -6.24,5.185 -2.544,-0.289 -4.512,-2.208 -4.848,-4.753 -0.144,-1.007 -0.144,-2.062 -0.144,-3.119 0,-12.335 0,-24.671 0,-37.006 0,-0.768 0,-1.584 0.144,-2.352 0.433,-3.024 2.496,-4.896 5.376,-4.943 2.976,-0.048 5.328,1.872 5.664,4.896 0.24,2.352 0.144,4.752 0.192,7.151 0,3.024 0,6.096 0,9.12 0.144,0.144 0.336,0.24 0.48,0.384 0.384,-0.48 0.72,-1.008 1.104,-1.488 4.848,-5.376 9.744,-10.799 14.639,-16.127 1.058,-1.152 2.257,-2.304 3.648,-3.024 2.256,-1.2 5.28,-0.288 6.721,1.679 1.536,2.064 1.295,4.704 -0.816,7.008 -3.455,3.696 -7.056,7.295 -10.56,10.943 -0.335,0.382 -0.671,0.719 -1.152,1.246 z"
         inkscape:connector-curvature="0"
         style="fill:#dd2428" /><path
         id="path3025"
         d="m 107.372,142.963 c -0.192,-7.104 1.392,-13.68 6.335,-19.103 8.448,-9.312 25.103,-9.744 33.551,-0.768 1.536,1.632 2.688,3.792 3.551,5.855 1.104,2.688 0,5.28 -2.16,6.528 -2.112,1.2 -4.991,0.672 -6.864,-1.345 -0.672,-0.72 -1.2,-1.536 -1.728,-2.352 -3.983,-6.047 -12.527,-6.671 -17.327,-1.295 -5.664,6.335 -5.808,18.095 -0.241,24.527 4.944,5.76 13.536,5.231 17.664,-1.152 1.296,-2.015 2.736,-3.743 5.28,-4.079 2.976,-0.433 5.808,1.775 5.664,4.751 -0.096,1.777 -0.624,3.648 -1.488,5.185 -3.6,6 -9.312,8.928 -16.08,9.407 -15.071,1.104 -25.582,-8.495 -26.11,-23.614 -0.096,-0.864 -0.047,-1.681 -0.047,-2.545 z"
         inkscape:connector-curvature="0"
         style="fill:#dd2428" /><path
         id="path3027"
         d="m 82.604,156.402 c -2.64,0 -5.232,0.049 -7.872,0 -0.96,0 -1.392,0.289 -1.728,1.2 -1.008,2.832 -2.015,5.615 -3.216,8.352 -1.152,2.64 -3.167,3.552 -5.76,2.881 -2.448,-0.625 -4.224,-3.12 -3.888,-5.664 0.144,-1.248 0.576,-2.496 1.008,-3.696 4.512,-12.048 9.072,-24.046 13.679,-36.047 0.432,-1.056 0.912,-2.16 1.488,-3.119 2.832,-4.656 9.407,-4.8 12.383,-0.241 0.72,1.056 1.2,2.256 1.68,3.456 4.56,11.664 9.12,23.375 13.68,35.086 0.528,1.344 1.008,2.783 1.248,4.176 0.48,2.688 -1.152,5.231 -3.648,6 -2.591,0.816 -4.992,-0.145 -6.191,-2.784 -1.2,-2.64 -2.208,-5.424 -3.216,-8.159 -0.384,-1.009 -0.816,-1.44 -1.968,-1.393 -2.543,0.001 -5.135,-0.048 -7.679,-0.048 z m -6.047,-9.023 c 4.128,0 7.967,0 12,0 -2.016,-5.711 -3.936,-11.231 -6.096,-17.23 -2.065,6.046 -3.984,11.566 -5.904,17.23 z"
         inkscape:connector-curvature="0"
         style="fill:#dd2428" /><path
         id="path3029"
         d="m 278.627,144.403 c 0,6.335 0,12.72 0,19.055 0,7.439 -5.28,12.671 -12.672,12.671 -12.719,0 -25.391,0 -38.109,0 -7.44,0 -12.72,-5.231 -12.72,-12.671 0,-12.767 -0.048,-25.534 0,-38.302 0,-7.344 5.232,-12.528 12.623,-12.576 12.768,0 25.535,0 38.302,0 7.44,0 12.624,5.231 12.624,12.719 -0.048,6.385 -0.048,12.769 -0.048,19.104 z M 247.049,115.21 c -5.722,0 -11.442,0 -17.163,0 -7.237,0 -12.226,4.939 -12.226,12.176 -0.048,11.295 -0.048,22.641 0,33.935 0,7.14 4.694,12.079 11.834,12.177 11.54,0.146 23.129,0.146 34.717,0 7.092,-0.098 11.834,-5.086 11.834,-12.177 0,-11.294 0,-22.639 0,-33.935 0,-7.237 -4.938,-12.176 -12.175,-12.176 -5.624,-0.048 -11.198,0 -16.821,0 z"
         inkscape:connector-curvature="0"
         style="fill:#dd2428" /><path
         id="path3031"
         d="m 283.571,144.307 c 0,-6.432 0,-12.815 0,-19.247 0,-7.151 5.183,-12.431 12.335,-12.431 12.959,-0.048 25.871,-0.048 38.83,0 7.007,0 12.287,5.279 12.336,12.287 0.095,12.959 0.047,25.871 0,38.83 -0.049,7.104 -5.376,12.384 -12.48,12.384 -12.863,0.048 -25.774,0.048 -38.638,0 -7.104,0 -12.383,-5.327 -12.383,-12.432 -0.049,-6.431 0,-12.911 0,-19.391 z m 60.898,0.146 c 0,-6.031 0.244,-12.11 -0.049,-18.141 -0.344,-6.962 -5.197,-11.228 -12.159,-11.228 -11.277,0 -22.554,0 -33.831,0 -7.403,0 -12.307,4.903 -12.307,12.307 0,11.276 0,22.554 0,33.831 0,7.207 4.561,12.207 11.719,12.306 11.669,0.147 23.338,0.147 34.958,0 6.767,-0.098 11.326,-4.413 11.62,-11.179 0.245,-5.884 0.049,-11.914 0.049,-17.896 z"
         inkscape:connector-curvature="0"
         style="fill:#dd2428" /><path
         id="path3033"
         d="m 246.853,117.044 c 5.471,0 10.991,0 16.462,0 6.528,0 10.8,4.224 10.8,10.751 0,11.04 0,22.08 0,33.12 0,6.383 -4.271,10.702 -10.655,10.75 -11.088,0.048 -22.224,0.048 -33.311,0 -6.384,-0.048 -10.607,-4.367 -10.607,-10.75 0,-11.04 0,-22.08 0,-33.12 0,-6.431 4.224,-10.656 10.655,-10.704 5.569,-0.047 11.136,-0.047 16.656,-0.047 z m 8.025,31.485 c -0.18,0.061 -0.359,0.12 -0.539,0.18 -0.418,-0.599 -0.896,-1.196 -1.255,-1.794 -4.247,-6.399 -8.433,-12.798 -12.678,-19.256 -1.615,-2.393 -3.29,-3.11 -5.562,-2.452 -2.093,0.598 -3.111,2.153 -3.229,4.964 0,0.239 0,0.478 0,0.658 0,8.851 0,17.642 0,26.491 0,0.897 0.118,1.854 0.358,2.691 0.479,1.734 1.795,2.393 3.469,2.332 1.734,-0.06 2.87,-1.016 3.229,-2.69 0.179,-0.896 0.179,-1.794 0.179,-2.751 0,-5.322 0,-10.646 0,-15.967 0,-0.657 0.12,-1.255 0.18,-2.572 0.837,1.256 1.256,1.914 1.734,2.572 4.066,6.218 8.133,12.499 12.319,18.659 1.674,2.451 4.006,3.288 6.278,2.512 2.512,-0.897 2.632,-3.11 2.632,-5.263 0,-8.853 0,-17.642 0,-26.492 0,-3.768 -1.138,-5.442 -3.708,-5.382 -2.392,0.06 -3.469,1.674 -3.469,5.382 0.062,6.098 0.062,12.138 0.062,18.178 z"
         inkscape:connector-curvature="0"
         style="fill:#dd2428" /><path
         id="path3035"
         d="m 287.986,144.355 c 0,-5.567 0,-11.087 0,-16.655 0,-6.335 4.224,-10.608 10.56,-10.608 11.184,-0.048 22.319,-0.048 33.503,0 6.288,0 10.511,4.32 10.511,10.656 0,11.088 0,22.223 0,33.311 0,6.288 -4.271,10.607 -10.56,10.655 -11.183,0.048 -22.318,0.048 -33.502,0 -6.288,-0.048 -10.512,-4.368 -10.512,-10.655 0,-5.617 0,-11.184 0,-16.704 z m 27.38,-4.729 c -0.657,-1.017 -1.136,-1.734 -1.614,-2.511 -2.212,-3.528 -4.364,-7.115 -6.696,-10.583 -1.137,-1.675 -3.169,-2.034 -4.844,-1.017 -1.794,1.076 -2.093,2.75 -1.256,4.544 0.479,1.076 1.137,2.152 1.794,3.169 2.332,3.708 4.844,7.354 7.056,11.121 0.777,1.376 1.256,3.049 1.376,4.604 0.239,3.409 0.118,6.816 0.298,10.225 0.119,2.033 1.555,3.109 3.528,3.169 1.974,0.061 3.348,-0.897 3.767,-2.931 0.179,-0.777 0.238,-1.674 0.238,-2.451 0.061,-2.81 -0.118,-5.62 0.061,-8.431 0.061,-1.315 0.42,-2.69 1.137,-3.767 2.93,-4.724 6.039,-9.267 8.969,-13.992 1.376,-2.212 0.957,-4.126 -0.718,-5.202 -1.733,-1.136 -3.887,-0.538 -5.261,1.494 -0.897,1.316 -1.675,2.691 -2.511,4.066 -1.736,2.693 -3.41,5.444 -5.324,8.493 z"
         inkscape:connector-curvature="0"
         style="fill:#dd2428" /></g><g
       id="g3037" /><g
       id="g3039" /><g
       id="g3041" /><g
       id="g3043" /></g></svg>